<svg width="448" height="512" viewBox="0 0 448 512" fill="none" xmlns="http://www.w3.org/2000/svg">
<path d="M408.781 128.007C386.356 127.578 368 146.36 368 168.79V256H360V79.79C360 57.36 341.644 38.578 319.219 39.007C297.488 39.423 280 57.169 280 79V256H272V40.79C272 18.36 253.644 -0.422037 231.219 0.00696266C209.488 0.422963 192 18.169 192 40V256H184V80.79C184 58.36 165.644 39.578 143.219 40.007C121.488 40.423 104 58.169 104 80V315.992L72.352 272.473C59.359 254.607 34.343 250.656 16.475 263.65C-1.39 276.644 -5.34 301.66 7.653 319.527L133.254 492.232C137.707 498.355 143.545 503.338 150.292 506.773C157.038 510.209 164.502 512 172.073 512H369.663C391.937 512 411.285 496.676 416.387 474.994L442.895 362.334C446.286 347.921 447.999 333.165 447.999 318.359V168C448 146.169 430.512 128.423 408.781 128.007Z" fill="#F2B7B2"/>
</svg>
