<svg width="512" height="450" viewBox="0 0 512 450" fill="none" xmlns="http://www.w3.org/2000/svg">
<path d="M464.8 49C437.9 48.6 416 70.2 416 97H408V65.8C408 39.5 387.1 17.5 360.8 17C333.9 16.6 312 38.2 312 65V97H304V49.8C304 23.5 283.1 1.49997 256.8 0.999974C229.9 0.599974 208 22.2 208 49V97H200V65.8C200 39.5 179.1 17.5 152.8 17C125.9 16.6 104 38.2 104 65V201L96 193.9V145.8C96 119.5 75.1 97.5 48.8 97C21.9 96.6 0 118.2 0 145V211.4C0 238.8 11.7 264.9 32.2 283.2L143.9 382.5C154.1 391.6 160 404.7 160 418.4V425.1C160 438.4 170.7 449.1 184 449.1H424C437.3 449.1 448 438.4 448 425.1V422.2C448 409.4 450.6 396.7 455.5 384.9L504.5 268.6C509.5 256.8 512 244.1 512 231.3V97.8C512 71.5 491.1 49.4 464.8 49V49Z" fill="#F2B7B2"/>
</svg>
