<svg width="512" height="448" viewBox="0 0 512 448" fill="none" xmlns="http://www.w3.org/2000/svg">
<path d="M216 408C216 385.908 233.909 368 256 368V360H224C201.909 360 184 342.092 184 320C184 297.908 201.909 280 224 280H256V272H48C21.49 272 0 250.51 0 224C0 197.49 21.49 176 48 176H256V162.428L78.449 92.688C53.775 82.994 41.631 55.133 51.324 30.46C61.017 5.78603 88.878 -6.35697 113.552 3.33603L303.894 78.101L328.766 47.011C341.072 31.63 362.744 27.496 379.847 37.27L491.847 101.27C497.969 104.769 503.058 109.824 506.597 115.923C510.136 122.022 512 128.948 512 136V376C512 394.562 499.23 410.686 481.162 414.937L345.162 446.937C342.159 447.644 339.085 448 336 448H256C233.909 448 216 430.092 216 408Z" fill="#F2B7B2"/>
</svg>
